<?xml version="1.0" encoding="iso-8859-1"?>
<!-- Generator: Adobe Illustrator 20.0.0, SVG Export Plug-In . SVG Version: 6.00 Build 0)  -->
<svg version="1.1" id="Layer_1_1_" xmlns="http://www.w3.org/2000/svg" xmlns:xlink="http://www.w3.org/1999/xlink" x="0px" y="0px"
	 viewBox="0 0 64 64" style="enable-background:new 0 0 64 64;" xml:space="preserve">
<rect x="14" y="15" width="2" height="2"/>
<rect x="10" y="15" width="2" height="2"/>
<rect x="31" y="15" width="2" height="2"/>
<rect x="27" y="15" width="2" height="2"/>
<rect x="6" y="15" width="2" height="2"/>
<rect x="52" y="15" width="2" height="2"/>
<rect x="48" y="15" width="2" height="2"/>
<rect x="44" y="15" width="2" height="2"/>
<path d="M57.523,53.109C57.833,52.45,58,51.735,58,51V26v-1V15c0-2.757-2.243-5-5-5H42V7c0-2.757-2.243-5-5-5H23
	c-2.757,0-5,2.243-5,5v3H7c-2.757,0-5,2.243-5,5v10v1v25c0,2.757,2.243,5,5,5h44.586l5.086,5.086C57.261,61.676,58.045,62,58.879,62
	C60.6,62,62,60.6,62,58.879c0-0.822-0.333-1.626-0.914-2.207L57.523,53.109z M48.064,54H11.941C11.478,49.835,8.164,46.522,4,46.059
	V29.941c4.164-0.463,7.478-3.776,7.941-7.941h16.607C24.046,24.591,21,29.442,21,35c0,8.271,6.729,15,15,15
	c2.748,0,5.318-0.755,7.535-2.051l4.767,4.767C48.19,53.14,48.113,53.569,48.064,54z M36,48c-7.168,0-13-5.832-13-13s5.832-13,13-13
	s13,5.832,13,13S43.168,48,36,48z M51,35c0-5.558-3.046-10.409-7.549-13h4.607c0.463,4.165,3.777,7.478,7.941,7.941v16.122
	c-1.445,0.162-2.832,0.671-4.038,1.485l-3.801-3.801C49.939,41.281,51,38.266,51,35z M56,48.088V51c0,0.182-0.017,0.36-0.049,0.537
	L53.414,49C54.207,48.526,55.085,48.221,56,48.088z M56,27.92c-3.059-0.441-5.479-2.861-5.92-5.92H53c1.654,0,3,1.346,3,3v1V27.92z
	 M20,7c0-1.654,1.346-3,3-3h14c1.654,0,3,1.346,3,3v8h-2V7c0-0.553-0.448-1-1-1H23c-0.552,0-1,0.447-1,1v8h-2V7z M36,10H24V8h12V10z
	 M7,12h11v4c0,0.553,0.448,1,1,1h4c0.552,0,1-0.447,1-1v-4h12v4c0,0.553,0.448,1,1,1h4c0.552,0,1-0.447,1-1v-4h11
	c1.654,0,3,1.346,3,3v6.026C55.162,20.391,54.13,20,53,20H7c-1.13,0-2.162,0.391-3,1.026V15C4,13.346,5.346,12,7,12z M4,25
	c0-1.654,1.346-3,3-3h2.92C9.479,25.059,7.059,27.479,4,27.92V26V25z M4,51v-2.92c3.059,0.441,5.479,2.861,5.92,5.92H7
	C5.346,54,4,52.654,4,51z M58.879,60c-0.3,0-0.581-0.116-0.793-0.328l-5.379-5.379L45.414,47L47,45.414l8.573,8.573l4.099,4.099
	C59.88,58.295,60,58.584,60,58.879C60,59.497,59.497,60,58.879,60z"/>
<rect x="17" y="34" width="2" height="2"/>
<rect x="13" y="34" width="2" height="2"/>
<rect x="13" y="38" width="2" height="2"/>
<rect x="13" y="30" width="2" height="2"/>
<path d="M31,30h3v-2h-4c-0.552,0-1,0.447-1,1v4h2V30z"/>
<path d="M41,40h-3v2h4c0.552,0,1-0.447,1-1v-4h-2V40z"/>
<path d="M42,28h-4v2h3v3h2v-4C43,28.447,42.552,28,42,28z"/>
<path d="M31,37h-2v4c0,0.553,0.448,1,1,1h4v-2h-3V37z"/>
<polygon points="39,36 39,34 37,34 37,32 35,32 35,34 33,34 33,36 35,36 35,38 37,38 37,36 "/>
</svg>
