<svg width="120" height="127" viewBox="0 0 120 127" fill="none" xmlns="http://www.w3.org/2000/svg">
<path d="M90.6165 75.6202C96.7437 55.6541 95.3395 37.5131 87.4802 35.1012C79.6208 32.6893 68.2824 46.9198 62.1551 66.8859C56.0279 86.852 57.4321 104.993 65.2915 107.405C73.1508 109.817 84.4892 95.5863 90.6165 75.6202Z" fill="#303646"/>
<path d="M88.2754 74.9026C94.4027 54.9365 93.4595 36.937 86.1689 34.6996C78.8782 32.4623 68.0009 46.8342 61.8736 66.8003C55.7464 86.7664 56.6895 104.766 63.9802 107.003C71.2708 109.241 82.1482 94.8687 88.2754 74.9026Z" fill="white"/>
<path d="M86.0745 74.2278C91.49 56.581 90.6566 40.6724 84.213 38.695C77.7694 36.7176 68.1557 49.4201 62.7402 67.0669C57.3247 84.7137 58.1581 100.622 64.6018 102.6C71.0454 104.577 80.659 91.8746 86.0745 74.2278Z" fill="#CD2B31"/>
<path d="M83.3356 73.3832C87.7442 59.0177 87.0655 46.0672 81.8199 44.4574C76.5743 42.8476 68.748 53.1881 64.3395 67.5537C59.931 81.9192 60.6096 94.8697 65.8552 96.4795C71.1009 98.0893 78.9271 87.7487 83.3356 73.3832Z" fill="white"/>
<path d="M81.5574 72.0846C85.1436 60.4188 84.5972 49.9002 80.3371 48.5906C76.077 47.281 69.7164 55.6764 66.1303 67.3422C62.5441 79.008 63.0904 89.5266 67.3505 90.8362C71.6106 92.1458 77.9713 83.7504 81.5574 72.0846Z" fill="#CD2B31"/>
<path d="M77.8266 71.6956C80.2212 63.8927 79.8522 56.8582 77.0025 55.9837C74.1528 55.1092 69.9015 60.7258 67.5069 68.5287C65.1123 76.3316 65.4813 83.366 68.331 84.2406C71.1807 85.1151 75.432 79.4985 77.8266 71.6956Z" fill="white"/>
<path d="M75.9793 70.3707C77.1889 66.4356 77.0042 62.8874 75.5667 62.4455C74.1292 62.0036 71.9832 64.8354 70.7735 68.7704C69.5639 72.7054 69.7486 76.2536 71.1861 76.6955C72.6237 77.1374 74.7696 74.3057 75.9793 70.3707Z" fill="#CD2B31"/>
<path d="M68.6614 64.8253C67.7974 65.9225 65.202 68.888 65.2588 69.3898C65.3156 69.8916 68.6723 68.8904 68.8377 68.0296C69.003 67.1688 68.6614 64.8253 68.6614 64.8253Z" fill="#BAB3B4"/>
<path d="M6.88568 36.4288C7.20314 36.3043 11.0716 34.9119 11.945 35.1054C12.5373 35.2707 13.0784 35.5825 13.5184 36.0122C11.0141 37.2691 9.46872 38.0426 8.32803 37.4035C7.73513 37.0688 7.28534 36.8503 7.03305 36.7034C6.78077 36.5566 6.73298 36.4912 6.88568 36.4288Z" fill="white"/>
<path opacity="0.09" d="M6.88573 36.4289C7.20319 36.3044 11.0717 34.912 11.945 35.1055C11.7007 35.615 8.40576 37.344 7.03311 36.7035C6.80354 36.5657 6.73304 36.4913 6.88573 36.4289Z" fill="#1F1F39"/>
<path d="M5.37743 35.5261C5.69012 35.3991 9.5634 34.0092 10.432 34.2001C11.0369 34.3739 11.5871 34.7001 12.0297 35.1475C9.52542 36.4043 7.96126 37.1557 6.81612 36.5019C6.22576 36.1624 5.77713 35.9475 5.52485 35.8007C5.27256 35.6539 5.22362 35.5849 5.37743 35.5261Z" fill="white"/>
<path opacity="0.09" d="M5.37733 35.5262C5.69003 35.3992 9.5633 34.0093 10.4319 34.2002C10.1876 34.7097 8.37349 35.9124 5.52475 35.8008C5.28787 35.6652 5.22352 35.585 5.37733 35.5262Z" fill="#1F1F39"/>
<path d="M3.66917 34.4526C4.3295 34.4106 4.97865 34.2617 5.59124 34.0116L5.6168 34.0039C6.91223 33.498 8.28761 33.0317 8.72373 33.1266C9.37431 33.3376 9.96181 33.7079 10.4328 34.2037C7.92962 35.4643 6.25412 36.0858 5.10676 35.4247C4.5164 35.0852 4.06777 34.8703 3.81548 34.7235L3.73698 34.6755C3.56572 34.5719 3.53364 34.5058 3.66917 34.4526Z" fill="white"/>
<path opacity="0.09" d="M3.66917 34.4526C4.3295 34.4106 4.97865 34.2617 5.59124 34.0116L5.6168 34.0039C6.94337 33.5085 8.33892 33.056 8.77504 33.1509C8.53077 33.6604 6.06492 34.7419 3.86424 34.7526L3.7381 34.6792C3.56573 34.5719 3.53364 34.5058 3.66917 34.4526Z" fill="#1F1F39"/>
<path d="M1.97273 33.4038C2.29019 33.2793 6.15866 31.8869 7.0309 32.0767C7.67245 32.2833 8.25369 32.6439 8.72382 33.1268C6.21951 34.3837 4.55657 35.0333 3.41509 34.3784C2.82219 34.0437 2.37239 33.8252 2.12011 33.6784C1.86782 33.5315 1.81893 33.4625 1.97273 33.4038Z" fill="white"/>
<path opacity="0.23" d="M1.97279 33.4036C2.29025 33.2791 6.15871 31.8867 7.03095 32.0765C6.78668 32.586 3.99777 32.9074 2.12016 33.6782C1.89059 33.5404 1.81898 33.4624 1.97279 33.4036Z" fill="#1F1F39"/>
<path d="M5.87682 31.118C5.97092 31.3668 6.12995 31.5859 6.33735 31.7524C7.54153 32.8235 67.377 68.977 67.5282 69.1985C67.5393 69.235 67.607 69.2344 67.6885 69.2136C67.8021 69.1837 67.9102 69.136 68.0088 69.0723C68.5097 68.7762 69.1232 68.1024 68.4539 67.5035C68.3937 67.4487 68.3292 67.3989 68.2609 67.3546C68.2609 67.3546 8.71744 30.166 7.54141 30.0407C6.60879 29.9411 5.64575 30.3977 5.87682 31.118Z" fill="#543237"/>
<path d="M11.8057 28.3085C11.8367 28.6465 12.3511 32.7262 12.9164 33.4166C13.3326 33.871 13.8568 34.2128 14.4405 34.4103C14.4297 31.6187 14.4263 29.875 13.3299 29.1584C12.761 28.7845 12.3655 28.4816 12.1194 28.3289C11.8733 28.1762 11.7872 28.1425 11.8057 28.3085Z" fill="white"/>
<path opacity="0.09" d="M11.8056 28.3084C11.8365 28.6463 12.3509 32.726 12.9163 33.4164C13.2614 32.976 13.3082 29.2447 12.1159 28.3178C11.8855 28.1643 11.787 28.1423 11.8056 28.3084Z" fill="#1F1F39"/>
<path d="M10.3141 27.3687C10.3451 27.7066 10.8594 31.7863 11.4248 32.4767C11.8537 32.9363 12.3935 33.278 12.9923 33.4692C12.9816 30.6776 12.9383 28.934 11.8361 28.2113C11.2672 27.8374 10.8716 27.5345 10.6255 27.3818C10.3794 27.229 10.2967 27.2063 10.3141 27.3687Z" fill="white"/>
<path opacity="0.09" d="M10.3142 27.3687C10.3451 27.7066 10.8595 31.7863 11.4248 32.4768C11.77 32.0364 12.0159 29.8655 10.6233 27.3745C10.3952 27.2283 10.2967 27.2063 10.3142 27.3687Z" fill="#1F1F39"/>
<path d="M8.58213 26.3345C8.84588 26.9405 9.00842 27.5857 9.06328 28.2443C9.06328 28.2443 9.06884 28.2626 9.07218 28.2735C9.20847 29.6535 9.41451 31.092 9.70013 31.4403C10.1826 31.9236 10.7778 32.279 11.4321 32.4746C11.4214 29.683 11.2136 27.8976 10.1114 27.1749C9.54138 26.7973 9.14584 26.4944 8.90452 26.3442L8.82603 26.2962C8.64158 26.1886 8.56912 26.1867 8.58213 26.3345Z" fill="white"/>
<path opacity="0.09" d="M8.58212 26.3343C8.84586 26.9404 9.0084 27.5855 9.06327 28.2442C9.06327 28.2442 9.06882 28.2624 9.07216 28.2734C9.23196 29.6781 9.46072 31.1257 9.74523 31.4704C10.0904 31.03 9.93218 28.3312 8.94484 26.3717L8.82379 26.2888C8.64156 26.1885 8.56911 26.1866 8.58212 26.3343Z" fill="#1F1F39"/>
<path d="M6.87687 25.2961C6.90892 25.6378 7.4233 29.7174 7.99121 30.4031C8.4647 30.8838 9.04903 31.2407 9.69285 31.4426C9.6821 28.651 9.49739 26.8626 8.40247 26.1376C7.83357 25.7637 7.43803 25.4608 7.19194 25.3081C6.94585 25.1554 6.86307 25.1327 6.87687 25.2961Z" fill="white"/>
<path opacity="0.23" d="M6.87686 25.2961C6.90891 25.6377 7.4233 29.7173 7.99121 30.403C8.33636 29.9626 7.35483 27.3266 7.19082 25.3044C6.96158 25.1545 6.86306 25.1326 6.87686 25.2961Z" fill="#1F1F39"/>
<path opacity="0.47" d="M5.87695 31.1179C5.97105 31.3667 6.13008 31.5858 6.33748 31.7524C7.54166 32.8234 67.3771 68.9769 67.5283 69.1984C67.5725 69.2649 67.7794 69.2099 68.009 69.0722C60.9999 64.5766 11.4409 34.2884 5.87695 31.1179Z" fill="#1F1F39"/>
<path d="M65.1091 69.619C65.0475 70.3485 72.6475 71.6938 73.2419 71.2854L73.2675 71.2776C73.6737 70.8147 69.0491 64.7473 68.6649 64.8362C68.2807 64.9251 68.1035 67.0592 67.5563 68.0561L67.538 68.0617C66.9889 69.0392 65.1481 69.1041 65.1091 69.619Z" fill="white"/>
<path opacity="0.22" d="M65.109 69.6191C65.0474 70.3485 72.6474 71.6938 73.2418 71.2854C71.0032 69.5309 68.8186 68.3868 67.539 68.0654C66.9888 69.0393 65.148 69.1041 65.109 69.6191Z" fill="#1F1F39"/>
</svg>
